<svg width="20" height="21" viewBox="0 0 20 21" fill="none" xmlns="http://www.w3.org/2000/svg">
<mask id="mask0_1_32" style="mask-type:alpha" maskUnits="userSpaceOnUse" x="0" y="0" width="20" height="21">
<rect y="0.481445" width="20" height="20" fill="#D9D9D9"/>
</mask>
<g mask="url(#mask0_1_32)">
<path d="M8.33334 13.8151H11.6667C11.9028 13.8151 12.1007 13.7352 12.2604 13.5755C12.4201 13.4158 12.5 13.2179 12.5 12.9818V11.3151H10.8333V12.1484H9.16667V8.8151H10.8333V9.64844H12.5V7.98177C12.5 7.74566 12.4201 7.54774 12.2604 7.38802C12.1007 7.2283 11.9028 7.14844 11.6667 7.14844H8.33334C8.09723 7.14844 7.89931 7.2283 7.73959 7.38802C7.57987 7.54774 7.5 7.74566 7.5 7.98177V12.9818C7.5 13.2179 7.57987 13.4158 7.73959 13.5755C7.89931 13.7352 8.09723 13.8151 8.33334 13.8151ZM10 18.8151C8.84723 18.8151 7.76389 18.5964 6.75 18.1589C5.73612 17.7214 4.85417 17.1276 4.10417 16.3776C3.35417 15.6276 2.76042 14.7457 2.32292 13.7318C1.88542 12.7179 1.66667 11.6345 1.66667 10.4818C1.66667 9.32899 1.88542 8.24566 2.32292 7.23177C2.76042 6.21788 3.35417 5.33594 4.10417 4.58594C4.85417 3.83594 5.73612 3.24219 6.75 2.80469C7.76389 2.36719 8.84723 2.14844 10 2.14844C11.1528 2.14844 12.2361 2.36719 13.25 2.80469C14.2639 3.24219 15.1458 3.83594 15.8958 4.58594C16.6458 5.33594 17.2396 6.21788 17.6771 7.23177C18.1146 8.24566 18.3333 9.32899 18.3333 10.4818C18.3333 11.6345 18.1146 12.7179 17.6771 13.7318C17.2396 14.7457 16.6458 15.6276 15.8958 16.3776C15.1458 17.1276 14.2639 17.7214 13.25 18.1589C12.2361 18.5964 11.1528 18.8151 10 18.8151ZM10 17.1484C11.8611 17.1484 13.4375 16.5026 14.7292 15.2109C16.0208 13.9193 16.6667 12.3429 16.6667 10.4818C16.6667 8.62066 16.0208 7.04427 14.7292 5.7526C13.4375 4.46094 11.8611 3.8151 10 3.8151C8.13889 3.8151 6.56251 4.46094 5.27084 5.7526C3.97917 7.04427 3.33334 8.62066 3.33334 10.4818C3.33334 12.3429 3.97917 13.9193 5.27084 15.2109C6.56251 16.5026 8.13889 17.1484 10 17.1484Z" fill="white"/>
</g>
</svg>
