<svg width="26" height="26" viewBox="0 0 26 26" fill="none" xmlns="http://www.w3.org/2000/svg">
<g clip-path="url(#clip0_6814_2171)">
<path d="M22.6383 12.6318C22.6403 12.8957 22.5601 13.1536 22.4088 13.3697C22.2575 13.5859 22.0426 13.7495 21.794 13.8379L16.6931 15.6929L14.8389 20.793C14.7475 21.0392 14.583 21.2516 14.3674 21.4015C14.1518 21.5515 13.8954 21.6318 13.6328 21.6318C13.3702 21.6318 13.1139 21.5515 12.8983 21.4015C12.6827 21.2516 12.5181 21.0392 12.4267 20.793L10.5726 15.6921L5.47162 13.8379C5.22542 13.7465 5.01308 13.582 4.86313 13.3664C4.71319 13.1508 4.63281 12.8945 4.63281 12.6318C4.63281 12.3692 4.71319 12.1129 4.86313 11.8973C5.01308 11.6817 5.22542 11.5171 5.47162 11.4257L10.5726 9.57159L12.4267 4.47065C12.5181 4.22444 12.6827 4.0121 12.8983 3.86216C13.1139 3.71221 13.3702 3.63184 13.6328 3.63184C13.8954 3.63184 14.1518 3.71221 14.3674 3.86216C14.583 4.0121 14.7475 4.22444 14.8389 4.47065L16.6939 9.57159L21.794 11.4257C22.0426 11.5141 22.2575 11.6778 22.4088 11.8939C22.5601 12.1101 22.6403 12.368 22.6383 12.6318Z" fill="white"/>
</g>
<defs>
<clipPath id="clip0_6814_2171">
<rect width="26" height="26" fill="white"/>
</clipPath>
</defs>
</svg>
