<svg width="28" height="28" viewBox="0 0 28 28" fill="none" xmlns="http://www.w3.org/2000/svg">
<path d="M19.5999 4.19995L9.7999 4.19995C7.09371 4.19995 4.8999 6.39376 4.8999 9.09995L4.8999 18.9C4.8999 21.6061 7.09371 23.8 9.7999 23.8L19.5999 23.8C22.3061 23.8 24.4999 21.6061 24.4999 18.9L24.4999 9.09995C24.4999 6.39376 22.3061 4.19995 19.5999 4.19995Z" stroke="#F7B502" stroke-width="3" stroke-linecap="round" stroke-linejoin="round"/>
<path d="M18.1582 13.0853C18.277 13.8864 18.1402 14.7044 17.7672 15.4232C17.3943 16.142 16.8041 16.7249 16.0808 17.089C15.3575 17.4531 14.5377 17.5798 13.7382 17.4511C12.9387 17.3225 12.2001 16.945 11.6275 16.3724C11.0549 15.7998 10.6774 15.0612 10.5488 14.2617C10.4201 13.4622 10.5469 12.6425 10.9109 11.9191C11.275 11.1958 11.8579 10.6057 12.5767 10.2327C13.2955 9.85974 14.1136 9.72291 14.9146 9.8417C15.7317 9.96286 16.4882 10.3436 17.0722 10.9277C17.6563 11.5118 18.0371 12.2682 18.1582 13.0853Z" stroke="#F7B502" stroke-width="3" stroke-linecap="round" stroke-linejoin="round"/>
<path d="M20.2999 8.3999L20.3097 8.3999" stroke="#F7B502" stroke-width="2.5641" stroke-linecap="round" stroke-linejoin="round"/>
</svg>
