<svg width="48" height="46" viewBox="0 0 48 46" fill="none" xmlns="http://www.w3.org/2000/svg">
<g filter="url(#filter0_f_7296_4004)">
<path d="M35 25.5V31.75C35 32.4402 34.3843 33 33.625 33H26.75C25.9907 33 25.375 32.4402 25.375 31.75V25.5C25.375 24.8097 25.9907 24.25 26.75 24.25H33.625C34.3843 24.25 35 24.8097 35 25.5ZM18.5 23C15.4625 23 13 25.2386 13 28C13 30.7613 15.4625 33 18.5 33C21.5375 33 24 30.7613 24 28C24 25.2386 21.5375 23 18.5 23ZM33.5833 21.7499C34.6721 21.7499 35.3528 20.7081 34.8084 19.8749L30.725 13.6249C30.1806 12.7917 28.8194 12.7917 28.275 13.6249L24.1916 19.8749C23.6472 20.7081 24.3279 21.7499 25.4167 21.7499H33.5833Z" fill="#F7B502"/>
</g>
<path fill-rule="evenodd" clip-rule="evenodd" d="M14.4356 18.6027C13.1664 19.8719 13.1664 21.9147 13.1664 26.0002C13.1664 30.0857 13.1664 32.1284 14.4356 33.3976C15.7048 34.6668 17.7475 34.6668 21.833 34.6668L26.1664 34.6668C30.2519 34.6668 32.2946 34.6668 33.5638 33.3976C34.833 32.1284 34.833 30.0857 34.833 26.0002C34.833 21.9147 34.833 19.8719 33.5638 18.6027C32.2946 17.3335 30.2519 17.3335 26.1664 17.3335L21.833 17.3335C17.7475 17.3335 15.7048 17.3335 14.4356 18.6027ZM31.1239 21.1467C31.4112 21.4914 31.3646 22.0037 31.0199 22.291L28.6403 24.2739C27.6801 25.0742 26.9018 25.7227 26.2149 26.1645C25.4994 26.6247 24.8025 26.9154 23.9997 26.9154C23.1969 26.9154 22.5 26.6247 21.7845 26.1645C21.0976 25.7227 20.3193 25.0742 19.3591 24.274L16.9796 22.291C16.6348 22.0037 16.5883 21.4914 16.8755 21.1467C17.1628 20.802 17.6751 20.7554 18.0199 21.0426L20.3587 22.9917C21.3694 23.8339 22.0711 24.4168 22.6635 24.7978C23.237 25.1666 23.6259 25.2904 23.9997 25.2904C24.3735 25.2904 24.7624 25.1666 25.3359 24.7978C25.9283 24.4168 26.6301 23.8339 27.6408 22.9917L29.9796 21.0426C30.3243 20.7554 30.8366 20.802 31.1239 21.1467Z" fill="#F7B502"/>
<defs>
<filter id="filter0_f_7296_4004" x="0" y="0" width="48" height="46" filterUnits="userSpaceOnUse" color-interpolation-filters="sRGB">
<feFlood flood-opacity="0" result="BackgroundImageFix"/>
<feBlend mode="normal" in="SourceGraphic" in2="BackgroundImageFix" result="shape"/>
<feGaussianBlur stdDeviation="6.5" result="effect1_foregroundBlur_7296_4004"/>
</filter>
</defs>
</svg>
