<svg width="28" height="28" viewBox="0 0 28 28" fill="none" xmlns="http://www.w3.org/2000/svg">
<path fill-rule="evenodd" clip-rule="evenodd" d="M9.0999 23.8L4.8999 23.8L4.8999 11.2L9.0999 11.2L9.0999 23.8Z" fill="#F7B502"/>
<path fill-rule="evenodd" clip-rule="evenodd" d="M6.98741 8.39995L6.96356 8.39995C5.71018 8.39995 4.8999 7.46619 4.8999 6.29923C4.8999 5.10758 5.73486 4.19995 7.01202 4.19995C8.28917 4.19995 9.07567 5.10758 9.0999 6.29923C9.0999 7.46619 8.28917 8.39995 6.98741 8.39995Z" fill="#F7B502"/>
<path fill-rule="evenodd" clip-rule="evenodd" d="M24.4997 23.7996L20.3726 23.7996L20.3726 17.2134C20.3726 15.5591 19.7754 14.4303 18.2813 14.4303C17.141 14.4303 16.4619 15.1913 16.1636 15.9263C16.0545 16.1898 16.0277 16.5568 16.0277 16.9247L16.0277 23.8L11.8999 23.8C11.8999 23.8 11.9543 12.6445 11.8999 11.4894L16.0277 11.4894L16.0277 13.233C16.5755 12.3948 17.5565 11.2 19.7479 11.2C22.4638 11.2 24.4999 12.9598 24.4999 16.7411L24.4997 23.7996Z" fill="#F7B502"/>
</svg>
