<svg width="26" height="26" viewBox="0 0 26 26" fill="none" xmlns="http://www.w3.org/2000/svg">
<path d="M10.8738 5.7591L11.5769 7.01894C12.2114 8.15588 11.9567 9.64736 10.9573 10.6467C10.9573 10.6467 9.74516 11.8589 11.943 14.0567C14.1407 16.2545 15.353 15.0423 15.353 15.0423C16.3523 14.043 17.8438 13.7883 18.9807 14.4228L20.2406 15.1259C21.9573 16.084 22.1601 18.4916 20.6511 20.0006C19.7443 20.9074 18.6335 21.6129 17.4056 21.6595C15.3384 21.7379 11.8279 21.2147 8.30641 17.6932C4.78496 14.1718 4.2618 10.6612 4.34017 8.5941C4.38672 7.36615 5.09227 6.25534 5.99903 5.34859C7.50805 3.83956 9.91567 4.04231 10.8738 5.7591Z" fill="#F7B502"/>
<path d="M14.3642 2.03681C14.4359 1.59385 14.8547 1.29336 15.2977 1.36507C15.3251 1.37032 15.4133 1.38681 15.4595 1.3971C15.552 1.41769 15.6809 1.44939 15.8417 1.49621C16.1632 1.58986 16.6123 1.74413 17.1514 1.99128C18.2307 2.4861 19.667 3.35168 21.1575 4.84213C22.6479 6.33258 23.5135 7.76888 24.0083 8.84818C24.2555 9.38727 24.4097 9.83642 24.5034 10.1579C24.5502 10.3187 24.5819 10.4477 24.6025 10.5401C24.6128 10.5863 24.6203 10.6234 24.6256 10.6508L24.6318 10.6846C24.7035 11.1276 24.4058 11.5637 23.9628 11.6354C23.5211 11.7069 23.105 11.4079 23.0315 10.967C23.0292 10.9551 23.023 10.9233 23.0164 10.8933C23.003 10.8333 22.9799 10.7382 22.9432 10.6124C22.8699 10.3607 22.7426 9.98655 22.5312 9.5254C22.1088 8.60424 21.3494 7.3322 20.0084 5.99118C18.6674 4.65017 17.3954 3.89076 16.4742 3.46844C16.0131 3.25702 15.6389 3.12969 15.3872 3.05638C15.2614 3.01973 15.1032 2.98342 15.0432 2.97006C14.6024 2.89659 14.2927 2.47851 14.3642 2.03681Z" fill="#F7B502"/>
<path fill-rule="evenodd" clip-rule="evenodd" d="M14.6093 5.77373C14.7326 5.34226 15.1823 5.09243 15.6138 5.2157L15.3906 5.99694C15.6138 5.2157 15.6138 5.2157 15.6138 5.2157L15.6153 5.21615L15.617 5.21663L15.6206 5.21768L15.629 5.22019L15.6504 5.22687C15.6668 5.23209 15.6872 5.2389 15.7115 5.24753C15.7601 5.26479 15.8245 5.28935 15.9033 5.32315C16.0612 5.39079 16.2768 5.49524 16.5417 5.65201C17.0719 5.96584 17.7958 6.48711 18.6462 7.3375C19.4966 8.18788 20.0179 8.91175 20.3317 9.44201C20.4885 9.70689 20.5929 9.92255 20.6605 10.0804C20.6944 10.1592 20.7189 10.2235 20.7362 10.2722C20.7448 10.2965 20.7516 10.3169 20.7568 10.3333L20.7635 10.3547L20.766 10.3631L20.7671 10.3667L20.7675 10.3684C20.7675 10.3684 20.768 10.3699 19.9868 10.5931L20.768 10.3699C20.8913 10.8014 20.6414 11.2511 20.21 11.3744C19.7822 11.4966 19.3364 11.252 19.2087 10.8273L19.2047 10.8156C19.1989 10.7993 19.187 10.7673 19.1669 10.7205C19.1269 10.627 19.0542 10.474 18.9332 10.2697C18.6917 9.86152 18.2554 9.24483 17.4972 8.48655C16.7389 7.72826 16.1222 7.292 15.714 7.05045C15.5097 6.92953 15.3567 6.85684 15.2632 6.81676C15.2164 6.7967 15.1844 6.78475 15.1681 6.77897L15.1564 6.77497C14.7317 6.64727 14.4871 6.20153 14.6093 5.77373Z" fill="#F7B502"/>
</svg>
