<svg width="1051" height="747" viewBox="0 0 1051 747" fill="none" xmlns="http://www.w3.org/2000/svg">
<g clip-path="url(#clip0_6521_5034)">
<path d="M855.788 486.712L839.46 438.827L812.194 448.113L756.502 284.75L694.414 305.898L694.6 306.453L674.574 392.871L646.081 515.811L662.703 552.499L721.33 532.527L742.672 525.253L766.431 517.156L785.828 574.069L847.918 552.921L828.519 496.009L855.788 486.712ZM742.892 471.726L728.808 476.525L701.835 485.716L720.245 394.336L721.976 386.754L750.102 469.268L742.892 471.726Z" fill="#9DC2E7"/>
<path opacity="0.25" d="M828.519 496.007L847.918 552.92L808.371 536.008L745.164 308.337L721.977 386.755L711.24 431.172L674.576 392.868L694.602 306.452L694.416 305.896L756.502 284.75L812.192 448.115L839.458 438.827L855.789 486.712L828.519 496.007Z" fill="#010101"/>
<path opacity="0.25" d="M742.672 525.252L721.33 532.525L724.466 488.556V480.541L728.808 476.525L731.601 473.946L742.89 471.727C742.892 471.727 742.193 504.023 742.672 525.252Z" fill="#010101"/>
<path d="M742.896 471.724C742.896 471.724 737.561 465.028 728.249 465.802C718.936 466.576 713.74 470.068 713.428 479.765C713.115 489.463 715.429 538.335 713.303 557.73C711.178 577.125 724.404 579.064 725.162 564.713C725.922 550.361 720.302 505.366 724.468 497.997C728.637 490.628 726.1 506.142 730.472 511.186C734.846 516.228 739.5 507.307 734.846 495.283C730.188 483.257 742.896 471.724 742.896 471.724Z" fill="url(#paint0_linear_6521_5034)"/>
<path d="M174.316 399.318C172.722 399.318 171.541 399.231 171.031 399.018C170.436 398.767 168.621 398.011 152.777 369.738L155.626 368.144C161.543 378.701 170.516 394.068 172.416 396.033C174.141 396.312 183.616 395.652 192.012 394.809L192.341 398.057C187.054 398.586 178.942 399.318 174.316 399.318Z" fill="#F26647"/>
<path d="M231.75 413.028V413.974C231.75 413.974 230.885 431.921 217.446 431.147C217.412 431.147 217.38 431.138 217.346 431.138C209.035 430.6 198.748 426.723 191.851 423.843C187.516 422.031 184.511 420.61 184.177 420.667C183.304 420.806 194.356 466.773 194.209 469.392C194.193 469.743 194.111 470.118 193.989 470.503C193.206 472.992 190.471 475.978 188.83 476.225C188.658 476.25 188.308 475.93 187.811 475.309C182.813 469.099 163.032 433.025 162.493 421.246C161.914 408.302 168.459 400.507 177.335 399.021C183.882 397.927 203.028 400.564 212.619 402.025C216.025 402.547 218.22 402.914 218.22 402.914L231.75 413.028Z" fill="#0A2533"/>
<path opacity="0.25" d="M194.211 469.392C194.195 469.744 194.113 470.118 193.99 470.504C193.207 472.993 190.473 475.979 188.832 476.225C188.659 476.25 188.31 475.931 187.812 475.309C194.85 465.377 176.454 417.019 180.455 416.881C182.43 416.815 186.798 420.17 191.852 423.844C187.518 422.031 184.513 420.611 184.179 420.668C183.304 420.806 194.358 466.772 194.211 469.392Z" fill="#010101"/>
<path opacity="0.25" d="M231.75 413.028V413.975C231.75 413.975 230.885 431.921 217.446 431.147C220.09 429.034 220.58 425.312 220.383 420.806C220.156 415.59 215.329 406.662 212.619 402.027C216.025 402.549 218.22 402.916 218.22 402.916L231.75 413.028Z" fill="#010101"/>
<path d="M203.15 354.099C202.703 354.802 202.408 355.39 202.408 355.837C202.408 355.837 202.392 355.81 202.36 355.755C202.204 355.478 201.641 354.507 200.916 353.38C199.691 351.488 198 349.135 196.979 348.849C195.338 348.4 190.972 353.916 185.069 354.358C184.676 354.394 184.286 354.399 183.884 354.385C177.386 354.09 170.494 344.876 176.03 334.02C177.965 337.995 181.941 338.093 181.941 338.093C181.941 338.093 179.516 337.605 179.427 334.599C186.504 335.856 190.188 330.527 196.303 332.469C202.408 334.402 202.026 338.091 202.026 338.091C202.026 338.091 206.679 336.247 208.131 342.066C209.298 346.721 204.947 351.308 203.15 354.099Z" fill="#0A2533"/>
<path d="M202.361 355.757C201.945 357.225 201.151 358.826 200.082 360.122C198.786 361.708 197.07 362.865 195.135 362.817C191.004 362.72 186.897 357.177 185.069 354.36C190.972 353.919 195.339 348.404 196.98 348.851C198.001 349.137 199.69 351.487 200.917 353.382C201.64 354.509 202.204 355.48 202.361 355.757Z" fill="url(#paint1_linear_6521_5034)"/>
<path d="M208.327 356.318C208.327 356.318 205.225 363.403 204.058 361.852C203.429 361.012 201.616 360.458 200.082 360.121C201.153 358.825 201.945 357.224 202.36 355.755C202.394 355.811 202.408 355.837 202.408 355.837C202.408 355.388 202.703 354.8 203.151 354.099C205.404 355.798 208.327 356.318 208.327 356.318Z" fill="url(#paint2_linear_6521_5034)"/>
<path d="M230.15 416.154C225.202 415.428 211.821 400.883 211.821 394.624C211.821 393.741 211.724 392.761 211.56 391.694C210.532 385.181 206.769 375.632 205.201 368.882C203.381 361.03 206 358.092 206 358.092C212.091 347.621 225.875 368.376 233.737 385.018L233.746 385.026C236.39 390.633 238.139 395.84 238.301 399.326C238.864 411.109 235.097 416.881 230.15 416.154Z" fill="#9DC2E7"/>
<path opacity="0.25" d="M230.15 416.155C225.202 415.429 211.821 400.884 211.821 394.624C211.821 393.742 211.724 392.762 211.56 391.695L211.528 388.904L216.376 363.503C216.376 363.503 223.071 371.462 224.14 385.712C225.202 399.962 240.897 403.064 233.744 385.027C236.388 390.633 238.137 395.84 238.299 399.327C238.864 411.109 235.097 416.881 230.15 416.155Z" fill="#010101"/>
<path d="M219.772 384.739C219.643 384.851 219.414 384.941 219.112 385.025C216.817 385.659 210.131 385.563 207.347 385.016C206.931 384.934 206.596 384.837 206.384 384.739C204.548 383.866 206.384 381.728 205.805 377.949C205.225 374.162 203.77 363.111 209.396 359.714C215.281 356.164 219.575 369.605 219.772 376.299C219.969 382.994 221.038 383.67 219.772 384.739Z" fill="#9DC2E7"/>
<path d="M219.111 385.025C219.111 385.025 218.843 401.372 215.723 409.085C215.723 409.094 215.723 409.094 215.723 409.101C214.752 411.501 213.503 413.06 211.894 413.028C205.127 412.881 189.926 396.811 188.539 396.223C187.159 395.643 180.244 396.664 180.464 395.643C180.684 394.624 183.378 392.369 186.284 391.284C189.199 390.193 188.684 390.844 207.38 399.431C207.126 397.782 207.233 390.649 207.315 386.608C207.324 385.996 207.341 385.458 207.348 385.018C210.133 385.563 216.817 385.66 219.111 385.025Z" fill="url(#paint3_linear_6521_5034)"/>
<path d="M199.787 480.443C200.261 483.356 180.682 503.279 181.702 498.047C182.714 492.808 188.83 476.223 188.83 476.223C190.471 475.976 193.205 472.992 193.989 470.501C195.59 473.276 199.387 478.027 199.787 480.443Z" fill="#5462AD"/>
<path opacity="0.25" d="M217.446 419.258C217.446 419.258 186.019 413.358 179.811 416.211C173.603 419.062 191.169 468.712 191.169 468.712" stroke="white" stroke-width="0.4597" stroke-miterlimit="10"/>
<path opacity="0.25" d="M215.723 409.085C216.319 405.803 216.769 396.262 215.119 392.492C214.009 389.944 209.879 387.757 207.312 386.608C207.321 385.996 207.339 385.458 207.346 385.018C210.131 385.564 216.817 385.66 219.111 385.026C219.111 385.025 218.843 401.372 215.723 409.085Z" fill="#010101"/>
<path d="M723.626 298.518C722.99 300.966 721.929 304.117 720.279 308.335C717.928 314.384 714.376 322.627 709.143 334.118C709.013 339.955 707.152 377.18 706.646 385.749C706.58 386.795 706.539 387.414 706.523 387.496C706.45 387.87 705.103 388.589 703.634 388.957C702.245 389.316 700.761 389.364 700.121 388.515C698.807 386.77 689.933 351.566 689.502 343.277C689.062 334.984 688.628 336.877 698.807 303.863C696.334 305.023 680.3 304.59 680.3 304.59C680.3 304.59 683.239 345.022 683.255 345.315C683.255 345.356 683.23 345.453 683.173 345.592C682.986 346.147 682.397 347.381 681.761 348.001C681.475 348.285 681.18 348.448 680.911 348.367C680.756 348.328 680.38 347.983 679.834 347.404C676.757 344.138 668.315 333.154 663.742 322.911C658.361 310.839 657.045 302.399 662.142 293.968C667.237 285.53 693.034 284.884 693.034 284.884C694.668 285.34 698.422 285.789 702.137 286.672C703.231 286.925 704.325 287.227 705.355 287.57C711.005 289.446 721.772 291.829 724.091 290.492C724.606 292.292 724.72 294.398 723.626 298.518Z" fill="#6561AB"/>
<path d="M745.009 270.41C743.988 270.988 732.135 270.548 724.124 267.494C724.165 268.906 724.344 271.127 724.548 273.649C724.868 277.624 725.235 282.35 725.145 285.794C725.095 288.251 724.811 290.062 724.124 290.479C724.115 290.488 724.108 290.495 724.09 290.495C722.859 291.205 719.249 290.863 715.282 290.112C712.718 289.622 710.008 288.961 707.697 288.299C706.856 288.054 706.065 287.811 705.355 287.573C700.816 286.055 695.151 285.475 693.034 284.887C692.503 284.74 692.202 284.601 692.184 284.438C692.12 283.637 694.151 281.826 695.107 279.932C695.22 279.696 695.375 279.345 695.547 278.895C696.323 276.912 697.54 273.158 698.127 270.766C698.477 269.355 698.609 268.425 698.3 268.586C697.353 269.092 691.75 279.565 691.097 279.565C690.87 279.565 689.742 278.92 688.403 278.013C686.15 276.486 683.317 274.242 683.251 273.174C683.235 273.026 683.276 272.904 683.383 272.806C684.697 271.565 694.73 254.695 698.371 251.096C700.077 249.397 702.095 248.378 703.736 247.775C705.572 247.089 706.96 246.933 706.96 246.933C709.123 246.858 711.302 247.146 713.426 247.684C720.643 249.488 727.265 254.043 731.037 256.294C735.91 259.2 739.257 258.401 740.49 259.128C741.735 259.864 746.02 269.822 745.009 270.41Z" fill="#242057"/>
<path d="M725.145 285.795C718.434 285.876 703.517 285.28 695.549 278.898C696.325 276.915 697.541 273.16 698.129 270.769C698.129 270.769 713.877 275.542 724.548 273.65C724.868 277.625 725.235 282.351 725.145 285.795Z" fill="#CF902A"/>
<path opacity="0.25" d="M713.429 247.687C713.17 250.478 712.181 253.482 709.142 253.246C704.857 252.912 703.934 249.41 703.738 247.778C705.574 247.093 706.963 246.936 706.963 246.936C709.126 246.862 711.305 247.148 713.429 247.687Z" fill="#010101"/>
<path d="M711.617 241.606C711.617 241.606 710.89 238.627 709.429 237.093C708.246 239.019 703.682 240.006 700.162 240.26C698.497 240.383 697.06 240.342 696.334 240.154C693.86 230.547 701.574 226.335 705.87 226.042C710.155 225.747 714.018 228.939 712.851 233.812C716.703 237.608 711.617 241.606 711.617 241.606Z" fill="#321212"/>
<path d="M711.616 241.606C711.396 242.243 711.053 243.361 710.466 244.405H710.457C709.494 246.143 707.878 247.686 705.078 246.552C704.98 246.511 704.882 246.47 704.792 246.422C702.434 245.351 701.208 243.271 700.589 241.63C700.393 241.116 700.255 240.643 700.164 240.26C703.682 240.006 708.248 239.019 709.43 237.093C709.496 237.167 709.562 237.24 709.626 237.313C710.956 238.896 711.616 241.606 711.616 241.606Z" fill="url(#paint4_linear_6521_5034)"/>
<path d="M711.249 249.025C710.817 251.718 706.376 251.572 705.893 249.825C705.639 248.92 705.353 248.046 705.133 247.409C704.937 246.814 704.79 246.429 704.79 246.429V246.422C704.881 246.47 704.978 246.511 705.076 246.552C707.876 247.686 709.492 246.145 710.455 244.405H710.464C710.162 245.009 710.97 245.769 711.24 247.196C711.339 247.711 711.364 248.316 711.249 249.025Z" fill="url(#paint5_linear_6521_5034)"/>
<path d="M688.186 355.643C687.753 358.99 670.436 372.081 670.731 369.755C671.015 367.428 679.834 347.408 679.834 347.408C680.381 347.987 680.758 348.331 680.91 348.37C681.784 348.624 682.894 346.403 683.171 345.595C685.499 348.517 688.577 352.656 688.186 355.643Z" fill="#242057"/>
<path d="M700.119 415.771C696.045 407.036 700.119 388.516 700.119 388.516C701.426 390.263 706.374 388.223 706.519 387.497C706.537 387.416 706.576 386.794 706.642 385.75C706.642 385.75 707.295 394.623 708.071 402.14C708.847 409.657 704.195 424.495 700.119 415.771Z" fill="#242057"/>
<path opacity="0.25" d="M698.806 303.865C696.332 305.025 680.298 304.591 680.298 304.591C680.298 304.591 683.237 345.024 683.253 345.317C683.253 345.358 683.228 345.455 683.172 345.594C682.985 346.149 682.396 347.383 681.76 348.003C678.805 334.168 672.911 307.641 677.611 303.088C683.63 297.268 699.925 295.718 700.161 296.991C700.399 298.273 698.806 303.865 698.806 303.865Z" fill="#010101"/>
<path d="M687.27 284.757C687.033 285.247 686.911 285.656 686.985 285.926C687.335 287.28 685.474 304.248 686.153 305.995C686.829 307.742 687.222 313.267 686.829 316.761C686.437 320.255 679.165 322.385 679.165 319.381C679.165 316.37 680.038 309.294 680.331 306.576C680.624 303.867 677.907 284.228 678.634 281.51C679.108 279.739 680.928 276.737 682.136 274.867C682.78 273.864 683.254 273.177 683.254 273.177C683.363 274.882 690.505 279.568 691.1 279.568C691.098 279.567 688.225 282.783 687.27 284.757Z" fill="url(#paint6_linear_6521_5034)"/>
<path opacity="0.25" d="M723.626 298.518C720.417 298.282 716.809 296.877 714.294 294.355C711.371 291.433 706.496 288.723 702.137 286.675C703.231 286.929 704.325 287.23 705.355 287.573C711.005 289.45 721.772 291.832 724.091 290.495C724.606 292.292 724.72 294.397 723.626 298.518Z" fill="#010101"/>
<path opacity="0.25" d="M720.279 308.337C717.927 314.385 714.376 322.628 709.142 334.12C709.013 339.957 707.152 377.181 706.646 385.75C706.58 386.796 706.539 387.416 706.523 387.497C706.45 387.872 705.102 388.591 703.634 388.958C703.968 376.405 703.527 349.08 705.651 340.951C708.187 331.222 719.568 309.675 720.279 308.337Z" fill="#010101"/>
<path opacity="0.25" d="M707.697 288.299C706.855 288.054 706.065 287.811 705.354 287.573C700.815 286.055 695.15 285.475 693.034 284.887C692.503 284.74 692.201 284.601 692.183 284.438C692.119 283.637 694.151 281.827 695.106 279.932C696.053 278.038 699.246 268.073 698.299 268.586C697.353 269.092 691.75 279.565 691.096 279.565C690.869 279.565 689.741 278.92 688.402 278.013C688.541 277.777 688.695 277.539 688.868 277.287C692.355 272.146 698.079 265.748 699.048 260.221C699.824 256.149 700.991 258.474 700.794 263.715C700.62 268.418 700.366 282.815 707.697 288.299Z" fill="#010101"/>
<path opacity="0.25" d="M724.123 290.48C724.114 290.489 724.107 290.496 724.089 290.496C722.859 291.206 719.248 290.863 715.281 290.112C722.376 283.004 718.504 263.749 719.616 264.738C720.921 265.897 724.121 267.497 724.121 267.497C724.27 272.736 726.386 289.1 724.123 290.48Z" fill="#010101"/>
<path opacity="0.25" d="M691.098 279.567C691.098 279.567 688.225 282.784 687.269 284.758C687.245 284.325 687.214 283.925 687.172 283.567C686.952 281.486 683.711 276.962 682.134 274.866C682.778 273.863 683.253 273.176 683.253 273.176C683.361 274.882 690.503 279.567 691.098 279.567Z" fill="#010101"/>
<path opacity="0.25" d="M709.624 237.313C707.878 241.174 702.742 241.622 700.587 241.63C700.391 241.116 700.253 240.643 700.162 240.26C703.68 240.006 708.246 239.019 709.428 237.093C709.494 237.167 709.56 237.24 709.624 237.313Z" fill="#010101"/>
<path opacity="0.25" d="M711.24 247.198C710.913 247.452 710.515 247.64 710.016 247.754C707.674 248.284 706.024 247.828 705.135 247.411C704.939 246.816 704.792 246.431 704.792 246.431V246.424C704.883 246.472 704.98 246.513 705.078 246.554C707.878 247.688 709.494 246.147 710.457 244.407H710.466C710.164 245.011 710.972 245.769 711.24 247.198Z" fill="#010101"/>
<path d="M734.457 -53.9297V308.337" stroke="#8F8A84" stroke-width="0.9195" stroke-miterlimit="10"/>
<path d="M749.734 265.219C749.718 265.316 749.695 265.414 749.678 265.504C748.715 269.888 745.204 270.353 744.542 270.067C743.881 269.781 742.134 267.773 740.607 260.699C740.573 260.559 740.55 260.42 740.516 260.274C740.516 260.274 737.218 251.819 735.668 247.753C731.839 245.484 731.113 246.408 730.573 243.787C730.042 241.167 731.742 237.78 732.713 237.29C733.684 236.809 738.044 240.881 738.632 242.383C739.211 243.883 750.608 260.566 749.734 265.219Z" fill="url(#paint7_linear_6521_5034)"/>
<path opacity="0.25" d="M749.677 265.504C748.715 269.888 745.204 270.353 744.542 270.067C743.881 269.781 742.134 267.773 740.606 260.699C741.578 262.664 743.073 265.212 744.714 266.264C746.516 267.413 748.543 267.047 749.677 265.504Z" fill="#010101"/>
<path d="M621.133 494.637L611.776 446.867C604.854 411.535 591.505 385.761 571.731 369.533C551.948 353.316 527.515 348.052 498.425 353.749C469.335 359.446 448.705 373.467 436.548 395.804C424.384 418.152 421.771 447.052 428.718 482.508L438.107 530.459C445.006 565.668 458.339 591.385 478.12 607.602C486.472 614.45 495.665 619.346 505.699 622.279C519.422 626.303 534.723 626.653 551.597 623.355C560.341 621.648 568.327 619.175 575.535 615.943C592.221 608.467 604.809 596.935 613.301 581.33C625.468 558.984 628.073 530.082 621.133 494.637ZM562.726 558.755C559.526 568.551 552.758 574.459 542.421 576.483C531.718 578.58 523.022 575.576 516.313 567.465C511.74 561.938 507.83 553.736 504.587 542.857C504.587 542.848 504.587 542.839 504.587 542.839C504.58 542.824 504.58 542.806 504.571 542.783C503.069 537.739 501.714 532.115 500.504 525.921L487.37 458.857C484.293 441.243 484.284 427.646 487.337 418.063C490.391 408.483 497.15 402.662 507.608 400.622C515.585 399.055 522.466 400.402 528.246 404.647H528.255C530.223 406.099 532.066 407.878 533.782 410.001C540.533 418.35 545.758 431.965 549.448 450.826L562.159 515.72C565.739 534.613 565.928 548.952 562.726 558.755Z" fill="#CF902A"/>
<path opacity="0.25" d="M567.421 567.717C570.117 571.864 573.699 600.054 575.537 615.944C568.327 619.177 560.341 621.65 551.599 623.356C534.725 626.653 519.424 626.303 505.701 622.28C506.262 621.015 506.777 619.692 507.217 618.337C515.782 592.178 505.079 544.98 504.589 542.857C507.83 553.736 511.74 561.938 516.315 567.464C523.024 575.576 531.72 578.58 542.423 576.483C552.758 574.457 559.528 568.549 562.728 558.755C565.929 548.953 565.739 534.613 562.165 515.718L549.453 450.824C545.763 431.963 540.537 418.349 533.787 409.999C532.072 407.878 530.228 406.099 528.261 404.645C548.908 408.693 565.677 472.6 572.665 503.428C579.644 534.261 580.232 548.52 567.421 567.717Z" fill="#010101"/>
<path d="M509.144 555.396C509.144 555.396 510.483 558.895 517.515 560.834C524.549 562.773 531.144 551.897 535.8 555.396C540.457 558.895 547.908 573.398 554.464 571.189C561.021 568.981 562.96 603.89 559.858 607.769C556.753 611.648 554.521 580.297 546.326 581.234C538.129 582.168 544.337 605.829 539.681 610.097C535.024 614.365 536.965 599.624 531.922 596.908C526.877 594.194 537.354 715.601 529.592 717.539C521.832 719.48 516.788 712.109 519.893 686.122C522.997 660.135 519.115 570.532 514.459 565.878C509.806 561.223 510.097 560.349 509.144 555.396Z" fill="#242057"/>
<path d="M507.219 -53.9297V369.608" stroke="#8F8A84" stroke-width="0.9195" stroke-miterlimit="10"/>
<path d="M607.944 205.825C607.944 205.825 601.762 188.88 602.27 187.569C602.78 186.261 609.57 183.788 610.069 184.514C610.565 185.242 614.857 198.406 614.129 199.35C613.401 200.297 607.944 205.825 607.944 205.825Z" fill="#1B1841"/>
<path d="M505.075 183.603C505.075 183.603 508.849 185.167 510.527 189.242C512.203 193.314 511.55 178.623 511.55 178.623L509.731 176.951L505.075 183.603Z" fill="url(#paint8_linear_6521_5034)"/>
<path d="M503.111 183.603C503.111 183.603 507.84 187.131 508.641 187.349C509.44 187.568 510.985 178.331 510.287 176.877C509.586 175.421 507.023 173.967 505.359 174.913C503.694 175.86 502.337 183.032 503.111 183.603Z" fill="url(#paint9_linear_6521_5034)"/>
<path d="M515.698 184.66C515.698 184.66 511.932 175.932 510.287 174.405C508.641 172.879 505.587 174.842 505.366 175.641C505.146 176.44 509.021 177.022 510.287 178.332C511.552 179.643 508.131 189.314 511.406 192.734C514.679 196.151 515.698 184.66 515.698 184.66Z" fill="url(#paint10_linear_6521_5034)"/>
<path d="M603.289 207.786C603.289 207.786 606.635 205.968 607.363 205.022C608.089 204.076 606.78 200.513 608.89 197.241C611 193.967 615.51 194.913 616.601 198.84C617.693 202.767 614.857 207.713 613.546 209.24C612.236 210.767 603.289 217.167 603.289 217.167" fill="url(#paint11_linear_6521_5034)"/>
<path d="M605.687 215.374C605.589 215.954 604.992 216.948 603.834 218.305C599.588 223.267 587.889 232.979 566.801 244.08C566.386 245.777 566.059 247.508 565.814 249.237C565.031 254.762 565.045 260.346 565.308 265.364C565.372 266.655 565.454 267.912 565.544 269.119C565.929 274.408 566.452 278.775 566.313 281.305C566.247 282.414 566.052 283.165 565.677 283.499C565.203 283.914 564.704 284.291 564.182 284.626C553.65 291.385 534.48 281.289 531.377 278.251C531.132 278.015 530.985 277.818 530.955 277.679C530.415 275.64 532.505 273.46 533.672 269.966C533.867 269.371 534.064 268.04 534.259 266.22C534.815 260.841 535.296 251.219 535.469 243.979C535.566 239.358 535.542 235.712 535.33 234.748C535.321 234.732 535.321 234.714 535.321 234.714C534.742 232.338 517.082 205.666 511.785 196.215C510.813 194.493 510.259 193.342 510.289 193.016C510.485 190.885 514.558 183.321 515.432 183.418C515.579 183.434 516.119 184.113 516.934 185.238C521.026 190.919 532.031 208.091 534.055 210.279C535.95 212.327 545.591 222.473 549.723 226.823C550.89 228.039 551.616 228.806 551.616 228.806C553.854 228.765 556.097 228.561 558.343 228.211C578.19 225.15 597.694 211.259 602.797 207.397C603.637 206.762 604.088 206.401 604.088 206.401C604.088 206.401 606.127 212.658 605.687 215.374Z" fill="#CF902A"/>
<path d="M556.159 237.581C549.389 238.675 549.37 229.869 549.721 226.825C550.888 228.041 551.614 228.808 551.614 228.808C553.852 228.767 556.095 228.563 558.341 228.213C559.183 231.682 558.508 237.207 556.159 237.581Z" fill="#C54527"/>
<path d="M563.012 218.705C561.698 219.496 559.982 219.766 557.795 219.202C556.113 218.777 554.143 217.856 551.849 216.295C551.849 216.295 550.036 218.476 549.89 222.474C545.089 218.328 543.922 214.181 547.996 212.654C546.323 205.383 549.89 203.856 555.85 203.497C561.819 203.13 563.198 209.242 566.764 209.097C566.981 212.356 566.057 216.901 563.012 218.705Z" fill="#1B1841"/>
<path d="M563.011 218.704C562.946 219.292 562.848 219.968 562.71 220.696C561.909 224.95 559.818 230.883 556.668 230.556C556.505 230.549 556.334 230.515 556.153 230.459C553.321 229.569 551.614 226.819 550.724 224.795C550.137 223.482 549.892 222.477 549.892 222.477C549.94 221.213 550.151 220.126 550.423 219.237C551.002 217.318 551.85 216.299 551.85 216.299C554.145 217.858 556.112 218.781 557.796 219.205C559.982 219.766 561.697 219.496 563.011 218.704Z" fill="url(#paint12_linear_6521_5034)"/>
<path d="M556.669 233.061C556.635 234.604 556.424 235.811 555.396 235.884C553.312 236.031 550.546 233.313 550.693 230.359C550.741 229.356 550.759 228.287 550.759 227.307C550.759 226.318 550.741 225.422 550.725 224.793C551.615 226.817 553.321 229.567 556.154 230.457C556.335 230.513 556.505 230.547 556.669 230.554C556.66 231.414 556.694 232.278 556.669 233.061Z" fill="url(#paint13_linear_6521_5034)"/>
<path d="M605.687 215.374C605.589 215.954 604.993 216.949 603.835 218.305C603.89 214.836 603.132 209.572 602.798 207.399C603.638 206.764 604.089 206.403 604.089 206.403C604.089 206.403 606.127 212.658 605.687 215.374Z" fill="#C54527"/>
<path d="M516.932 185.242C513.832 187.894 512.319 193.674 511.783 196.22C510.811 194.498 510.257 193.348 510.287 193.021C510.483 190.891 514.556 183.326 515.43 183.424C515.579 183.438 516.117 184.114 516.932 185.242Z" fill="#C54527"/>
<path d="M565.543 269.119C558.604 270.122 545.549 271.013 534.258 266.222C534.814 260.843 535.295 251.221 535.467 243.981C541.059 246.347 553.133 250.558 565.814 249.236C564.825 256.184 565.102 263.227 565.543 269.119Z" fill="#FCAF17"/>
<path opacity="0.25" d="M564.18 284.628C552.831 291.909 531.457 279.625 530.953 277.681C530.413 275.642 532.503 273.462 533.67 269.968C533.865 269.373 534.062 268.042 534.257 266.222C534.813 260.843 535.295 251.221 535.467 243.981C535.564 239.36 535.54 235.713 535.328 234.75C535.573 235.5 539.411 247.661 541.377 259.495C543.417 271.713 542.977 277.534 548.945 281.459C552.438 283.753 558.815 284.962 564.18 284.628Z" fill="#010101"/>
<path d="M590.117 318.213C590.117 323.257 571.877 351.203 568.1 356.939C567.667 357.602 567.422 357.969 567.422 357.969C567.422 357.969 565.07 357.699 563.135 357.046C561.789 356.579 560.638 355.943 560.638 355.063C560.638 354.882 560.672 354.605 560.728 354.237C561.373 350.344 565.381 336.257 570.526 317.633C567.816 314.336 548.802 301.726 548.802 301.726C548.802 301.726 548.793 301.742 548.784 301.774C547.96 303.675 521.566 364.692 518.569 370.382C518.462 370.586 518.387 370.716 518.339 370.774C516.984 372.521 511.359 372.709 510.968 369.027C510.968 369.02 510.968 369.02 510.968 369.011C509.352 353.588 522.658 307.062 528.856 286.489C529.966 282.799 530.847 279.943 531.378 278.253C534.48 281.289 553.65 291.385 564.182 284.628C564.705 284.292 565.204 283.918 565.678 283.501C566.052 283.167 566.248 282.416 566.313 281.306C566.509 281.518 566.715 281.747 566.917 281.992C574.262 290.389 590.117 313.356 590.117 318.213Z" fill="#9DC2E7"/>
<path d="M520.428 378.92C519.701 382.552 500.49 393.317 502.239 386.804C503.66 381.522 508.998 372.308 510.966 369.012C510.966 369.021 510.966 369.021 510.966 369.028C511.358 372.71 516.984 372.523 518.337 370.775C518.385 370.718 518.46 370.588 518.566 370.382C519.547 373.191 520.902 376.569 520.428 378.92Z" fill="#242057"/>
<path d="M574.409 375.719C572.948 376.447 554.039 369.173 554.472 366.7C554.913 364.227 560.725 354.238 560.725 354.238C560.668 354.605 560.634 354.882 560.634 355.063C560.634 357.192 567.418 357.969 567.418 357.969C567.418 357.969 567.663 357.602 568.096 356.94C568.94 364.49 575.773 375.035 574.409 375.719Z" fill="#242057"/>
<path opacity="0.25" d="M546.326 299.644C546.326 299.644 525.373 340.779 517.515 369.011" stroke="#010101" stroke-width="0.4597" stroke-miterlimit="10"/>
<path opacity="0.25" d="M551.271 299.644C551.271 299.644 574.551 314.916 575.426 317.389C576.298 319.862 563.349 354.239 563.349 354.239" stroke="#010101" stroke-width="0.4597" stroke-miterlimit="10"/>
<path opacity="0.25" d="M566.915 281.99C564.352 292.225 549.508 289.443 541.917 287.476C537.5 286.333 532.437 286.292 528.855 286.487C529.965 282.798 530.846 279.942 531.377 278.251C534.479 281.287 553.65 291.383 564.182 284.627C564.704 284.291 565.203 283.916 565.677 283.499C566.052 283.165 566.247 282.415 566.313 281.305C566.507 281.518 566.711 281.747 566.915 281.99Z" fill="#010101"/>
<path opacity="0.25" d="M563.134 357.048C561.788 356.581 560.638 355.945 560.638 355.065C560.638 354.884 560.671 354.607 560.728 354.239C561.373 350.346 565.381 336.259 570.525 317.634C567.816 314.338 548.802 301.728 548.802 301.728C548.802 301.728 550.352 296.496 552.099 296.105C553.845 295.722 574.02 313.074 576.249 316.665C578.215 319.82 564.475 345.579 563.134 357.048Z" fill="#010101"/>
<path opacity="0.25" d="M563.012 218.704C562.946 219.292 562.848 219.968 562.71 220.696C557.624 223.284 552.634 217.456 552.039 217.529C551.696 217.57 550.993 218.452 550.423 219.235C551.002 217.316 551.851 216.297 551.851 216.297C554.145 217.856 556.113 218.779 557.796 219.203C559.982 219.766 561.698 219.496 563.012 218.704Z" fill="#010101"/>
<path opacity="0.25" d="M556.668 233.061C553.312 232.244 551.458 228.882 550.758 227.307C550.758 226.318 550.741 225.422 550.725 224.793C551.614 226.817 553.321 229.567 556.153 230.457C556.334 230.513 556.505 230.547 556.668 230.554C556.659 231.414 556.693 232.278 556.668 233.061Z" fill="#010101"/>
<path opacity="0.25" d="M565.814 249.238C565.03 254.763 565.045 260.346 565.307 265.365C563.984 259.79 562.827 253.799 564.18 250.331C566.513 244.358 566.767 244.081 566.801 244.081C566.384 245.778 566.057 247.507 565.814 249.238Z" fill="#010101"/>
<path d="M402.462 304.893L339.648 294.103L339.55 294.666L200.831 450.799L197.967 489.829L217.863 493.249L252.3 499.166L298.525 507.108L302.918 507.859L299.612 527.112L298.077 536.019L293.023 565.441L333.908 572.468L355.84 576.231L365.733 518.65L393.327 523.382L401.654 474.926L374.06 470.193L402.462 304.893ZM324.047 384.902L311.236 459.403L295.913 456.766L262.397 451.014L280.955 428.871L285.201 423.803L320.584 381.582L325.588 375.919L324.047 384.902Z" fill="#242057"/>
<path opacity="0.25" d="M298.525 507.108L252.3 499.166C257.744 481.186 264.539 456.406 262.399 451.013L295.914 456.765C298.061 460.342 299.759 465.261 300.217 472.013C301.032 483.962 299.251 496.164 298.525 507.108Z" fill="#010101"/>
<path d="M264.399 451.36C264.399 451.36 269.439 444.369 280.788 446.553C292.137 448.736 293.011 462.701 288.064 478.119C283.116 493.538 281.953 547.356 284.279 564.811C286.609 582.265 285.153 590.412 279.625 590.993C274.097 591.575 271.476 570.046 274.677 554.92C277.879 539.793 277.588 525.829 272.349 528.156C267.111 530.485 271.476 536.303 268.856 541.538C266.237 546.774 258.381 543.575 258.672 533.683C258.963 523.791 274.784 459.509 264.399 451.36Z" fill="#9DC2E7"/>
<path opacity="0.25" d="M374.06 470.193L401.654 474.926L393.327 523.382L365.733 518.649L355.838 576.231L333.908 572.466L372.453 332.039L402.462 304.893L374.06 470.193Z" fill="#010101"/>
<path d="M355.284 -53.9297V320.81" stroke="white" stroke-width="0.9195" stroke-miterlimit="10"/>
<path d="M460.916 246.097C467.184 246.097 472.265 241.017 472.265 234.751C472.265 228.485 467.184 223.405 460.916 223.405C454.648 223.405 449.566 228.485 449.566 234.751C449.566 241.017 454.648 246.097 460.916 246.097Z" fill="#CF902A"/>
<path d="M855.788 390.28C862.056 390.28 867.137 385.2 867.137 378.934C867.137 372.668 862.056 367.588 855.788 367.588C849.52 367.588 844.438 372.668 844.438 378.934C844.438 385.2 849.52 390.28 855.788 390.28Z" fill="#242057"/>
<path d="M262.399 307.442C268.667 307.442 273.748 302.363 273.748 296.096C273.748 289.83 268.667 284.75 262.399 284.75C256.131 284.75 251.05 289.83 251.05 296.096C251.05 302.363 256.131 307.442 262.399 307.442Z" fill="#9DC2E7"/>
<path d="M449.568 654.412C455.836 654.412 460.917 649.332 460.917 643.066C460.917 636.8 455.836 631.72 449.568 631.72C443.3 631.72 438.219 636.8 438.219 643.066C438.219 649.332 443.3 654.412 449.568 654.412Z" fill="#CF902A"/>
<path d="M790.91 273.281C793.327 273.281 795.287 271.321 795.287 268.904C795.287 266.488 793.327 264.528 790.91 264.528C788.492 264.528 786.532 266.488 786.532 268.904C786.532 271.321 788.492 273.281 790.91 273.281Z" fill="#CF902A"/>
<path d="M456.538 341.422C458.955 341.422 460.915 339.462 460.915 337.046C460.915 334.629 458.955 332.669 456.538 332.669C454.12 332.669 452.16 334.629 452.16 337.046C452.16 339.462 454.12 341.422 456.538 341.422Z" fill="#9DC2E7"/>
<path d="M325.588 282.169C328.006 282.169 329.966 280.21 329.966 277.793C329.966 275.376 328.006 273.417 325.588 273.417C323.171 273.417 321.211 275.376 321.211 277.793C321.211 280.21 323.171 282.169 325.588 282.169Z" fill="#242057"/>
</g>
<defs>
<linearGradient id="paint0_linear_6521_5034" x1="722.089" y1="422.927" x2="736.049" y2="646.344" gradientUnits="userSpaceOnUse">
<stop stop-color="#CF902A"/>
<stop offset="1" stop-color="#F47920"/>
</linearGradient>
<linearGradient id="paint1_linear_6521_5034" x1="192.928" y1="362.471" x2="194.527" y2="347.342" gradientUnits="userSpaceOnUse">
<stop stop-color="#FBC4AF"/>
<stop offset="1" stop-color="#EA8B69"/>
</linearGradient>
<linearGradient id="paint2_linear_6521_5034" x1="213.095" y1="357.411" x2="199.127" y2="358.43" gradientUnits="userSpaceOnUse">
<stop stop-color="#FBC4AF"/>
<stop offset="1" stop-color="#EA8B69"/>
</linearGradient>
<linearGradient id="paint3_linear_6521_5034" x1="194.809" y1="414.408" x2="207.606" y2="368.441" gradientUnits="userSpaceOnUse">
<stop stop-color="#FBC4AF"/>
<stop offset="1" stop-color="#EA8B69"/>
</linearGradient>
<linearGradient id="paint4_linear_6521_5034" x1="705.673" y1="245.883" x2="706.255" y2="232.575" gradientUnits="userSpaceOnUse">
<stop stop-color="#FBC4AF"/>
<stop offset="1" stop-color="#EA8B69"/>
</linearGradient>
<linearGradient id="paint5_linear_6521_5034" x1="708.257" y1="251.544" x2="707.821" y2="242.09" gradientUnits="userSpaceOnUse">
<stop stop-color="#FBC4AF"/>
<stop offset="1" stop-color="#EA8B69"/>
</linearGradient>
<linearGradient id="paint6_linear_6521_5034" x1="679.069" y1="322.911" x2="689.539" y2="254.838" gradientUnits="userSpaceOnUse">
<stop stop-color="#FBC4AF"/>
<stop offset="1" stop-color="#EA8B69"/>
</linearGradient>
<linearGradient id="paint7_linear_6521_5034" x1="737.678" y1="240.804" x2="745.821" y2="283.762" gradientUnits="userSpaceOnUse">
<stop stop-color="#FBC4AF"/>
<stop offset="1" stop-color="#EA8B69"/>
</linearGradient>
<linearGradient id="paint8_linear_6521_5034" x1="506.583" y1="177.436" x2="511.675" y2="188.26" gradientUnits="userSpaceOnUse">
<stop stop-color="#FBC4AF"/>
<stop offset="1" stop-color="#EA8B69"/>
</linearGradient>
<linearGradient id="paint9_linear_6521_5034" x1="498.859" y1="177.169" x2="511.515" y2="182.48" gradientUnits="userSpaceOnUse">
<stop stop-color="#FBC4AF"/>
<stop offset="1" stop-color="#EA8B69"/>
</linearGradient>
<linearGradient id="paint10_linear_6521_5034" x1="506.123" y1="173.095" x2="514.268" y2="190.407" gradientUnits="userSpaceOnUse">
<stop stop-color="#FBC4AF"/>
<stop offset="1" stop-color="#EA8B69"/>
</linearGradient>
<linearGradient id="paint11_linear_6521_5034" x1="622.145" y1="190.226" x2="599.02" y2="217.722" gradientUnits="userSpaceOnUse">
<stop stop-color="#FBC4AF"/>
<stop offset="1" stop-color="#EA8B69"/>
</linearGradient>
<linearGradient id="paint12_linear_6521_5034" x1="557.444" y1="232.129" x2="554.972" y2="203.327" gradientUnits="userSpaceOnUse">
<stop stop-color="#FBC4AF"/>
<stop offset="1" stop-color="#EA8B69"/>
</linearGradient>
<linearGradient id="paint13_linear_6521_5034" x1="553.214" y1="232.352" x2="554.377" y2="224.934" gradientUnits="userSpaceOnUse">
<stop stop-color="#FBC4AF"/>
<stop offset="1" stop-color="#EA8B69"/>
</linearGradient>
<clipPath id="clip0_6521_5034">
<rect width="1051" height="747" fill="white"/>
</clipPath>
</defs>
</svg>
