<svg width="44" height="44" viewBox="0 0 44 44" fill="none" xmlns="http://www.w3.org/2000/svg">
<rect width="44" height="44" rx="12" fill="white"/>
<path d="M12.4189 7.74497L22 6.73904L31.5811 7.74523L39 17.6217L22 37.261L5 17.6217L12.4189 7.74497Z" fill="#FDB300"/>
<path d="M11.8863 17.6217L22 37.261L5 17.6217H11.8863ZM32.1137 17.6217L22 37.261L39 17.6217H32.1137Z" fill="#EA6C00"/>
<path d="M11.8863 17.6217H32.1137L22 37.261L11.8863 17.6217Z" fill="#FDAD00"/>
<path d="M22 6.73904L12.4189 7.74497L11.8863 17.6217L22 6.73904ZM22 6.73904L31.5811 7.74497L32.1137 17.6217L22 6.73904Z" fill="#FDD231"/>
<path d="M39 17.6217L31.5811 7.74496L32.1137 17.6217H39Z" fill="#FDAD00"/>
<path d="M22 6.73904L11.8863 17.6217H32.1137L22 6.73904Z" fill="#FEEEB7"/>
<path d="M5 17.6217L12.4189 7.74496L11.8863 17.6217H5Z" fill="#FDAD00"/>
</svg>
